<?xml version="1.0" standalone="no"?>
 <!DOCTYPE svg PUBLIC "-//W3C//DTD SVG 1.1//EN" 
 "http://www.w3.org/Graphics/SVG/1.1/DTD/svg11.dtd"> 
<svg xmlns="http://www.w3.org/2000/svg" version="1.1" 
    width="5.63118cm" height="5.8166cm" viewBox="0 0 22170 22900 ">
<title>SVG Picture created as Frente-brd.svg date 2019/11/18 09:46:44 </title>
  <desc>Picture generated by PCBNEW </desc>
<g style="fill:#000000; fill-opacity:1;stroke:#000000; stroke-opacity:1;
stroke-linecap:round; stroke-linejoin:round; "
 transform="translate(0 0) scale(1 1)">
</g>
<g style="fill:#000000; fill-opacity:0.0; 
stroke:#000000; stroke-width:-0.000393701; stroke-opacity:1; 
stroke-linecap:round; stroke-linejoin:round;">
</g>
<g style="fill:#848484; fill-opacity:0.0; 
stroke:#848484; stroke-width:-0.000393701; stroke-opacity:1; 
stroke-linecap:round; stroke-linejoin:round;">
</g>
<g style="fill:#848484; fill-opacity:0.0; 
stroke:#848484; stroke-width:39.3701; stroke-opacity:1; 
stroke-linecap:round; stroke-linejoin:round;">
<path d="M15015.1 5420.41 A1141.73 1141.73 0.0 1 0 15015.1 6577.64 " />
<circle cx="14030.8" cy="5999.02" r="984.252" /> 
<path d="M15015 6577
L15015 5420
" />
<path d="M15015 21577
L15015 20420
" />
<circle cx="14030.8" cy="20999" r="984.252" /> 
<path d="M15015.1 20420.4 A1141.73 1141.73 0.0 1 0 15015.1 21577.6 " />
<path d="M15015.1 15420.4 A1141.73 1141.73 0.0 1 0 15015.1 16577.6 " />
<circle cx="14030.8" cy="15999" r="984.252" /> 
<path d="M15015 16577
L15015 15420
" />
<path d="M15015 11577
L15015 10420
" />
<circle cx="14030.8" cy="10999" r="984.252" /> 
<path d="M15015.1 10420.4 A1141.73 1141.73 0.0 1 0 15015.1 11577.6 " />
<path d="M5090 11699
L4340 11699
" />
<path d="M4340 11699
L4340 9699
" />
<path d="M4340 9699
L5340 9699
" />
<path d="M5340 9699
L5340 11449
" />
<path d="M5340 11449
L5090 11699
" />
<path d="M6056 11325
L5340 11325
" />
<path d="M6056 11325
L6056 11073
" />
<path d="M6056 11073
L5340 11073
" />
<path d="M4340 11325
L1978 11325
" />
<path d="M1978 11325
L1978 11073
" />
<path d="M4340 11073
L1978 11073
" />
<path d="M6056 10325
L5340 10325
" />
<path d="M6056 10325
L6056 10073
" />
<path d="M6056 10073
L5340 10073
" />
<path d="M4340 10325
L1978 10325
" />
<path d="M1978 10325
L1978 10073
" />
<path d="M4340 10073
L1978 10073
" />
<path d="M5090 21499
L4340 21499
" />
<path d="M4340 21499
L4340 15499
" />
<path d="M4340 15499
L5340 15499
" />
<path d="M5340 15499
L5340 21249
" />
<path d="M5340 21249
L5090 21499
" />
<path d="M6056 21125
L5340 21125
" />
<path d="M6056 21125
L6056 20873
" />
<path d="M6056 20873
L5340 20873
" />
<path d="M4340 21125
L1978 21125
" />
<path d="M1978 21125
L1978 20873
" />
<path d="M4340 20873
L1978 20873
" />
<path d="M6056 20125
L5340 20125
" />
<path d="M6056 20125
L6056 19873
" />
<path d="M6056 19873
L5340 19873
" />
<path d="M4340 20125
L1978 20125
" />
<path d="M1978 20125
L1978 19873
" />
<path d="M4340 19873
L1978 19873
" />
<path d="M6056 19125
L5340 19125
" />
<path d="M6056 19125
L6056 18873
" />
<path d="M6056 18873
L5340 18873
" />
<path d="M4340 19125
L1978 19125
" />
<path d="M1978 19125
L1978 18873
" />
<path d="M4340 18873
L1978 18873
" />
<path d="M6056 18125
L5340 18125
" />
<path d="M6056 18125
L6056 17873
" />
<path d="M6056 17873
L5340 17873
" />
<path d="M4340 18125
L1978 18125
" />
<path d="M1978 18125
L1978 17873
" />
<path d="M4340 17873
L1978 17873
" />
<path d="M6056 17125
L5340 17125
" />
<path d="M6056 17125
L6056 16873
" />
<path d="M6056 16873
L5340 16873
" />
<path d="M4340 17125
L1978 17125
" />
<path d="M1978 17125
L1978 16873
" />
<path d="M4340 16873
L1978 16873
" />
<path d="M6056 16125
L5340 16125
" />
<path d="M6056 16125
L6056 15873
" />
<path d="M6056 15873
L5340 15873
" />
<path d="M4340 16125
L1978 16125
" />
<path d="M1978 16125
L1978 15873
" />
<path d="M4340 15873
L1978 15873
" />
<path d="M8590 14506
L8590 15491
" />
<path d="M8590 15491
L11070 15491
" />
<path d="M11070 15491
L11070 14506
" />
<path d="M11070 14506
L8590 14506
" />
<path d="M8330 14999
L8590 14999
" />
<path d="M11330 14999
L11070 14999
" />
<path d="M11330 20999
L11070 20999
" />
<path d="M8330 20999
L8590 20999
" />
<path d="M11070 20506
L8590 20506
" />
<path d="M11070 21491
L11070 20506
" />
<path d="M8590 21491
L11070 21491
" />
<path d="M8590 20506
L8590 21491
" />
<path d="M8590 18506
L8590 19491
" />
<path d="M8590 19491
L11070 19491
" />
<path d="M11070 19491
L11070 18506
" />
<path d="M11070 18506
L8590 18506
" />
<path d="M8330 18999
L8590 18999
" />
<path d="M11330 18999
L11070 18999
" />
<path d="M11330 16999
L11070 16999
" />
<path d="M8330 16999
L8590 16999
" />
<path d="M11070 16506
L8590 16506
" />
<path d="M11070 17491
L11070 16506
" />
<path d="M8590 17491
L11070 17491
" />
<path d="M8590 16506
L8590 17491
" />
<g >
</g>
<g >
</g>
<g >
</g>
<g >
</g>
<g >
</g>
<g >
</g>
<g >
</g>
<g >
</g>
<g >
</g>
<g >
</g>
</g>
<g style="fill:#848484; fill-opacity:0.0; 
stroke:#848484; stroke-width:59.0551; stroke-opacity:1; 
stroke-linecap:round; stroke-linejoin:round;">
<path d="M12221 4505
L12409 4505
" />
<path d="M12184 4618
L12315 4224
L12446 4618
" />
<path d="M12634 4618
L12596 4599
L12577 4561
L12577 4224
" />
<path d="M12784 4618
L12784 4355
" />
<path d="M12784 4224
L12765 4243
L12784 4261
L12802 4243
L12784 4224
L12784 4261
" />
<path d="M12971 4618
L12971 4355
" />
<path d="M12971 4393
L12990 4374
L13027 4355
L13084 4355
L13121 4374
L13140 4411
L13140 4618
" />
<path d="M13140 4411
L13159 4374
L13196 4355
L13252 4355
L13290 4374
L13309 4411
L13309 4618
" />
<path d="M13646 4599
L13609 4618
L13534 4618
L13496 4599
L13477 4561
L13477 4411
L13496 4374
L13534 4355
L13609 4355
L13646 4374
L13665 4411
L13665 4449
L13477 4486
" />
<path d="M13833 4355
L13833 4618
" />
<path d="M13833 4393
L13852 4374
L13890 4355
L13946 4355
L13983 4374
L14002 4411
L14002 4618
" />
<path d="M14133 4355
L14283 4355
" />
<path d="M14190 4224
L14190 4561
L14208 4599
L14246 4618
L14283 4618
" />
<path d="M14583 4618
L14583 4411
L14565 4374
L14527 4355
L14452 4355
L14415 4374
" />
<path d="M14583 4599
L14546 4618
L14452 4618
L14415 4599
L14396 4561
L14396 4524
L14415 4486
L14452 4468
L14546 4468
L14583 4449
" />
<path d="M14940 4599
L14902 4618
L14827 4618
L14790 4599
L14771 4580
L14752 4543
L14752 4430
L14771 4393
L14790 4374
L14827 4355
L14902 4355
L14940 4374
" />
<path d="M15108 4618
L15108 4355
" />
<path d="M15108 4224
L15090 4243
L15108 4261
L15127 4243
L15108 4224
L15108 4261
" />
<path d="M15352 4618
L15315 4599
L15296 4580
L15277 4543
L15277 4430
L15296 4393
L15315 4374
L15352 4355
L15408 4355
L15446 4374
L15465 4393
L15483 4430
L15483 4543
L15465 4580
L15446 4599
L15408 4618
L15352 4618
" />
<path d="M15652 4355
L15652 4618
" />
<path d="M15652 4393
L15671 4374
L15708 4355
L15764 4355
L15802 4374
L15821 4411
L15821 4618
" />
</g>
<g style="fill:#848484; fill-opacity:0.0; 
stroke:#848484; stroke-width:78.7402; stroke-opacity:1; 
stroke-linecap:round; stroke-linejoin:round;">
<path d="M13806 6141
L13806 5826
L13881 5826
L13926 5841
L13956 5871
L13971 5901
L13986 5961
L13986 6006
L13971 6066
L13956 6096
L13926 6126
L13881 6141
L13806 6141
" />
<path d="M14286 6141
L14106 6141
" />
<path d="M14196 6141
L14196 5826
L14166 5871
L14136 5901
L14106 5916
" />
</g>
<g style="fill:#848484; fill-opacity:0.0; 
stroke:#848484; stroke-width:59.0551; stroke-opacity:1; 
stroke-linecap:round; stroke-linejoin:round;">
<path d="M12577 19411
L12446 19411
" />
<path d="M12446 19618
L12446 19224
L12634 19224
" />
<path d="M12952 19355
L12952 19618
" />
<path d="M12784 19355
L12784 19561
L12802 19599
L12840 19618
L12896 19618
L12934 19599
L12952 19580
" />
<path d="M13140 19355
L13140 19618
" />
<path d="M13140 19393
L13159 19374
L13196 19355
L13252 19355
L13290 19374
L13309 19411
L13309 19618
" />
<path d="M13665 19599
L13627 19618
L13552 19618
L13515 19599
L13496 19580
L13477 19543
L13477 19430
L13496 19393
L13515 19374
L13552 19355
L13627 19355
L13665 19374
" />
<path d="M13833 19618
L13833 19355
" />
<path d="M13833 19224
L13815 19243
L13833 19261
L13852 19243
L13833 19224
L13833 19261
" />
<path d="M14077 19618
L14040 19599
L14021 19580
L14002 19543
L14002 19430
L14021 19393
L14040 19374
L14077 19355
L14133 19355
L14171 19374
L14190 19393
L14208 19430
L14208 19543
L14190 19580
L14171 19599
L14133 19618
L14077 19618
" />
<path d="M14377 19355
L14377 19618
" />
<path d="M14377 19393
L14396 19374
L14433 19355
L14490 19355
L14527 19374
L14546 19411
L14546 19618
" />
<path d="M14902 19618
L14902 19411
L14883 19374
L14846 19355
L14771 19355
L14733 19374
" />
<path d="M14902 19599
L14865 19618
L14771 19618
L14733 19599
L14715 19561
L14715 19524
L14733 19486
L14771 19468
L14865 19468
L14902 19449
" />
<path d="M15090 19355
L15090 19618
" />
<path d="M15090 19393
L15108 19374
L15146 19355
L15202 19355
L15240 19374
L15258 19411
L15258 19618
" />
<path d="M15615 19618
L15615 19224
" />
<path d="M15615 19599
L15577 19618
L15502 19618
L15465 19599
L15446 19580
L15427 19543
L15427 19430
L15446 19393
L15465 19374
L15502 19355
L15577 19355
L15615 19374
" />
</g>
<g style="fill:#848484; fill-opacity:0.0; 
stroke:#848484; stroke-width:78.7402; stroke-opacity:1; 
stroke-linecap:round; stroke-linejoin:round;">
<path d="M13806 21141
L13806 20826
L13881 20826
L13926 20841
L13956 20871
L13971 20901
L13986 20961
L13986 21006
L13971 21066
L13956 21096
L13926 21126
L13881 21141
L13806 21141
" />
<path d="M14106 20856
L14121 20841
L14151 20826
L14226 20826
L14256 20841
L14271 20856
L14286 20886
L14286 20916
L14271 20961
L14091 21141
L14286 21141
" />
</g>
<g style="fill:#848484; fill-opacity:0.0; 
stroke:#848484; stroke-width:59.0551; stroke-opacity:1; 
stroke-linecap:round; stroke-linejoin:round;">
<path d="M12934 14580
L12915 14599
L12859 14618
L12821 14618
L12765 14599
L12727 14561
L12709 14524
L12690 14449
L12690 14393
L12709 14318
L12727 14280
L12765 14243
L12821 14224
L12859 14224
L12915 14243
L12934 14261
" />
<path d="M13159 14618
L13121 14599
L13102 14580
L13084 14543
L13084 14430
L13102 14393
L13121 14374
L13159 14355
L13215 14355
L13252 14374
L13271 14393
L13290 14430
L13290 14543
L13271 14580
L13252 14599
L13215 14618
L13159 14618
" />
<path d="M13459 14618
L13459 14355
" />
<path d="M13459 14430
L13477 14393
L13496 14374
L13534 14355
L13571 14355
" />
<path d="M13702 14618
L13702 14355
" />
<path d="M13702 14430
L13721 14393
L13740 14374
L13777 14355
L13815 14355
" />
<path d="M13946 14618
L13946 14355
" />
<path d="M13946 14224
L13927 14243
L13946 14261
L13965 14243
L13946 14224
L13946 14261
" />
<path d="M14283 14599
L14246 14618
L14171 14618
L14133 14599
L14115 14561
L14115 14411
L14133 14374
L14171 14355
L14246 14355
L14283 14374
L14302 14411
L14302 14449
L14115 14486
" />
<path d="M14471 14355
L14471 14618
" />
<path d="M14471 14393
L14490 14374
L14527 14355
L14583 14355
L14621 14374
L14640 14411
L14640 14618
" />
<path d="M14996 14618
L14996 14224
" />
<path d="M14996 14599
L14958 14618
L14883 14618
L14846 14599
L14827 14580
L14808 14543
L14808 14430
L14827 14393
L14846 14374
L14883 14355
L14958 14355
L14996 14374
" />
<path d="M15240 14618
L15202 14599
L15183 14580
L15165 14543
L15165 14430
L15183 14393
L15202 14374
L15240 14355
L15296 14355
L15333 14374
L15352 14393
L15371 14430
L15371 14543
L15352 14580
L15333 14599
L15296 14618
L15240 14618
" />
</g>
<g style="fill:#848484; fill-opacity:0.0; 
stroke:#848484; stroke-width:78.7402; stroke-opacity:1; 
stroke-linecap:round; stroke-linejoin:round;">
<path d="M13806 16141
L13806 15826
L13881 15826
L13926 15841
L13956 15871
L13971 15901
L13986 15961
L13986 16006
L13971 16066
L13956 16096
L13926 16126
L13881 16141
L13806 16141
" />
<path d="M14091 15826
L14286 15826
L14181 15946
L14226 15946
L14256 15961
L14271 15976
L14286 16006
L14286 16081
L14271 16111
L14256 16126
L14226 16141
L14136 16141
L14106 16126
L14091 16111
" />
</g>
<g style="fill:#848484; fill-opacity:0.0; 
stroke:#848484; stroke-width:59.0551; stroke-opacity:1; 
stroke-linecap:round; stroke-linejoin:round;">
<path d="M13712 9618
L13580 9430
" />
<path d="M13487 9618
L13487 9224
L13637 9224
L13674 9243
L13693 9261
L13712 9299
L13712 9355
L13693 9393
L13674 9411
L13637 9430
L13487 9430
" />
<path d="M14030 9599
L13993 9618
L13918 9618
L13880 9599
L13862 9561
L13862 9411
L13880 9374
L13918 9355
L13993 9355
L14030 9374
L14049 9411
L14049 9449
L13862 9486
" />
<path d="M14274 9618
L14237 9599
L14218 9561
L14218 9224
" />
<path d="M14574 9599
L14537 9618
L14462 9618
L14424 9599
L14405 9561
L14405 9411
L14424 9374
L14462 9355
L14537 9355
L14574 9374
L14593 9411
L14593 9449
L14405 9486
" />
</g>
<g style="fill:#848484; fill-opacity:0.0; 
stroke:#848484; stroke-width:78.7402; stroke-opacity:1; 
stroke-linecap:round; stroke-linejoin:round;">
<path d="M13806 11141
L13806 10826
L13881 10826
L13926 10841
L13956 10871
L13971 10901
L13986 10961
L13986 11006
L13971 11066
L13956 11096
L13926 11126
L13881 11141
L13806 11141
" />
<path d="M14256 10931
L14256 11141
" />
<path d="M14181 10811
L14106 11036
L14301 11036
" />
</g>
<g style="fill:#848484; fill-opacity:0.0; 
stroke:#848484; stroke-width:59.0551; stroke-opacity:1; 
stroke-linecap:round; stroke-linejoin:round;">
<path d="M1907 9445
L1889 9464
L1832 9483
L1795 9483
L1739 9464
L1701 9427
L1682 9389
L1664 9314
L1664 9258
L1682 9183
L1701 9145
L1739 9108
L1795 9089
L1832 9089
L1889 9108
L1907 9127
" />
<path d="M2132 9483
L2095 9464
L2076 9445
L2057 9408
L2057 9295
L2076 9258
L2095 9239
L2132 9220
L2189 9220
L2226 9239
L2245 9258
L2264 9295
L2264 9408
L2245 9445
L2226 9464
L2189 9483
L2132 9483
" />
<path d="M2432 9220
L2432 9483
" />
<path d="M2432 9258
L2451 9239
L2489 9220
L2545 9220
L2582 9239
L2601 9277
L2601 9483
" />
<path d="M2789 9220
L2789 9483
" />
<path d="M2789 9258
L2807 9239
L2845 9220
L2901 9220
L2938 9239
L2957 9277
L2957 9483
" />
<path d="M3051 9520
L3351 9520
" />
<path d="M3520 9089
L3557 9089
L3595 9108
L3613 9127
L3632 9164
L3651 9239
L3651 9333
L3632 9408
L3613 9445
L3595 9464
L3557 9483
L3520 9483
L3482 9464
L3463 9445
L3445 9408
L3426 9333
L3426 9239
L3445 9164
L3463 9127
L3482 9108
L3520 9089
" />
<path d="M4026 9483
L3801 9483
" />
<path d="M3913 9483
L3913 9089
L3876 9145
L3838 9183
L3801 9202
" />
<path d="M4157 9483
L4363 9220
" />
<path d="M4157 9220
L4363 9483
" />
<path d="M4588 9089
L4626 9089
L4663 9108
L4682 9127
L4701 9164
L4720 9239
L4720 9333
L4701 9408
L4682 9445
L4663 9464
L4626 9483
L4588 9483
L4551 9464
L4532 9445
L4513 9408
L4495 9333
L4495 9239
L4513 9164
L4532 9127
L4551 9108
L4588 9089
" />
<path d="M4870 9127
L4888 9108
L4926 9089
L5019 9089
L5057 9108
L5076 9127
L5094 9164
L5094 9202
L5076 9258
L4851 9483
L5094 9483
" />
<path d="M5169 9520
L5469 9520
" />
<path d="M5563 9483
L5563 9089
L5694 9370
L5826 9089
L5826 9483
" />
<path d="M6182 9483
L6182 9277
L6163 9239
L6126 9220
L6051 9220
L6013 9239
" />
<path d="M6182 9464
L6144 9483
L6051 9483
L6013 9464
L5994 9427
L5994 9389
L6013 9352
L6051 9333
L6144 9333
L6182 9314
" />
<path d="M6426 9483
L6388 9464
L6369 9427
L6369 9089
" />
<path d="M6726 9464
L6688 9483
L6613 9483
L6576 9464
L6557 9427
L6557 9277
L6576 9239
L6613 9220
L6688 9220
L6726 9239
L6744 9277
L6744 9314
L6557 9352
" />
<path d="M4624 10830
L4905 10830
L4962 10848
L4999 10886
L5018 10942
L5018 10980
" />
<path d="M5018 10436
L5018 10661
" />
<path d="M5018 10549
L4624 10549
L4680 10586
L4718 10624
L4737 10661
" />
<path d="M1907 15245
L1889 15264
L1832 15283
L1795 15283
L1739 15264
L1701 15227
L1682 15189
L1664 15114
L1664 15058
L1682 14983
L1701 14945
L1739 14908
L1795 14889
L1832 14889
L1889 14908
L1907 14927
" />
<path d="M2132 15283
L2095 15264
L2076 15245
L2057 15208
L2057 15095
L2076 15058
L2095 15039
L2132 15020
L2189 15020
L2226 15039
L2245 15058
L2264 15095
L2264 15208
L2245 15245
L2226 15264
L2189 15283
L2132 15283
" />
<path d="M2432 15020
L2432 15283
" />
<path d="M2432 15058
L2451 15039
L2489 15020
L2545 15020
L2582 15039
L2601 15077
L2601 15283
" />
<path d="M2789 15020
L2789 15283
" />
<path d="M2789 15058
L2807 15039
L2845 15020
L2901 15020
L2938 15039
L2957 15077
L2957 15283
" />
<path d="M3051 15320
L3351 15320
" />
<path d="M3520 14889
L3557 14889
L3595 14908
L3613 14927
L3632 14964
L3651 15039
L3651 15133
L3632 15208
L3613 15245
L3595 15264
L3557 15283
L3520 15283
L3482 15264
L3463 15245
L3445 15208
L3426 15133
L3426 15039
L3445 14964
L3463 14927
L3482 14908
L3520 14889
" />
<path d="M4026 15283
L3801 15283
" />
<path d="M3913 15283
L3913 14889
L3876 14945
L3838 14983
L3801 15002
" />
<path d="M4157 15283
L4363 15020
" />
<path d="M4157 15020
L4363 15283
" />
<path d="M4588 14889
L4626 14889
L4663 14908
L4682 14927
L4701 14964
L4720 15039
L4720 15133
L4701 15208
L4682 15245
L4663 15264
L4626 15283
L4588 15283
L4551 15264
L4532 15245
L4513 15208
L4495 15133
L4495 15039
L4513 14964
L4532 14927
L4551 14908
L4588 14889
" />
<path d="M5057 14889
L4982 14889
L4944 14908
L4926 14927
L4888 14983
L4870 15058
L4870 15208
L4888 15245
L4907 15264
L4944 15283
L5019 15283
L5057 15264
L5076 15245
L5094 15208
L5094 15114
L5076 15077
L5057 15058
L5019 15039
L4944 15039
L4907 15058
L4888 15077
L4870 15114
" />
<path d="M5169 15320
L5469 15320
" />
<path d="M5563 15283
L5563 14889
L5694 15170
L5826 14889
L5826 15283
" />
<path d="M6182 15283
L6182 15077
L6163 15039
L6126 15020
L6051 15020
L6013 15039
" />
<path d="M6182 15264
L6144 15283
L6051 15283
L6013 15264
L5994 15227
L5994 15189
L6013 15152
L6051 15133
L6144 15133
L6182 15114
" />
<path d="M6426 15283
L6388 15264
L6369 15227
L6369 14889
" />
<path d="M6726 15264
L6688 15283
L6613 15283
L6576 15264
L6557 15227
L6557 15077
L6576 15039
L6613 15020
L6688 15020
L6726 15039
L6744 15077
L6744 15114
L6557 15152
" />
<path d="M4624 18630
L4905 18630
L4962 18648
L4999 18686
L5018 18742
L5018 18780
" />
<path d="M4662 18461
L4643 18442
L4624 18405
L4624 18311
L4643 18274
L4662 18255
L4699 18236
L4737 18236
L4793 18255
L5018 18480
L5018 18236
" />
<path d="M9952 16110
L9821 15922
" />
<path d="M9727 16110
L9727 15716
L9877 15716
L9915 15735
L9933 15753
L9952 15791
L9952 15847
L9933 15885
L9915 15903
L9877 15922
L9727 15922
" />
<path d="M9765 15177
L9633 14989
" />
<path d="M9540 15177
L9540 14783
L9690 14783
L9727 14802
L9746 14820
L9765 14858
L9765 14914
L9746 14952
L9727 14970
L9690 14989
L9540 14989
" />
<path d="M10140 15177
L9915 15177
" />
<path d="M10027 15177
L10027 14783
L9990 14839
L9952 14877
L9915 14895
" />
<path d="M9952 22110
L9821 21922
" />
<path d="M9727 22110
L9727 21716
L9877 21716
L9915 21735
L9933 21753
L9952 21791
L9952 21847
L9933 21885
L9915 21903
L9877 21922
L9727 21922
" />
<path d="M9765 21177
L9633 20989
" />
<path d="M9540 21177
L9540 20783
L9690 20783
L9727 20802
L9746 20820
L9765 20858
L9765 20914
L9746 20952
L9727 20970
L9690 20989
L9540 20989
" />
<path d="M9915 20820
L9933 20802
L9971 20783
L10065 20783
L10102 20802
L10121 20820
L10140 20858
L10140 20895
L10121 20952
L9896 21177
L10140 21177
" />
<path d="M9952 20110
L9821 19922
" />
<path d="M9727 20110
L9727 19716
L9877 19716
L9915 19735
L9933 19753
L9952 19791
L9952 19847
L9933 19885
L9915 19903
L9877 19922
L9727 19922
" />
<path d="M9765 19177
L9633 18989
" />
<path d="M9540 19177
L9540 18783
L9690 18783
L9727 18802
L9746 18820
L9765 18858
L9765 18914
L9746 18952
L9727 18970
L9690 18989
L9540 18989
" />
<path d="M9896 18783
L10140 18783
L10008 18933
L10065 18933
L10102 18952
L10121 18970
L10140 19008
L10140 19102
L10121 19139
L10102 19158
L10065 19177
L9952 19177
L9915 19158
L9896 19139
" />
<path d="M9952 18110
L9821 17922
" />
<path d="M9727 18110
L9727 17716
L9877 17716
L9915 17735
L9933 17753
L9952 17791
L9952 17847
L9933 17885
L9915 17903
L9877 17922
L9727 17922
" />
<path d="M9765 17177
L9633 16989
" />
<path d="M9540 17177
L9540 16783
L9690 16783
L9727 16802
L9746 16820
L9765 16858
L9765 16914
L9746 16952
L9727 16970
L9690 16989
L9540 16989
" />
<path d="M10102 16914
L10102 17177
" />
<path d="M10008 16764
L9915 17045
L10158 17045
" />
<g >
</g>
</g>
<g style="fill:#000000; fill-opacity:0.0; 
stroke:#000000; stroke-width:59.0551; stroke-opacity:1; 
stroke-linecap:round; stroke-linejoin:round;">
<g >
</g>
<g >
</g>
<g >
</g>
<g >
</g>
<g >
</g>
<g >
</g>
<g >
</g>
<g >
</g>
<g >
</g>
<g >
</g>
<g >
</g>
<g >
</g>
<g >
</g>
<g >
</g>
<g >
</g>
<g >
</g>
<g >
</g>
<g >
</g>
<g >
</g>
<g >
</g>
<g >
</g>
<g >
</g>
<g >
</g>
<g >
</g>
<g >
</g>
<g >
</g>
<g >
</g>
<g >
</g>
<g >
</g>
<g >
</g>
<g >
</g>
<g >
</g>
<g >
</g>
</g>
<g style="fill:#C2C200; fill-opacity:0.0; 
stroke:#C2C200; stroke-width:59.0551; stroke-opacity:1; 
stroke-linecap:round; stroke-linejoin:round;">
<path d="M20620 9905
L20620 10130
" />
<path d="M20620 10017
L20227 10017
L20283 10055
L20320 10092
L20339 10130
" />
<path d="M20264 9755
L20245 9736
L20227 9698
L20227 9605
L20245 9567
L20264 9548
L20302 9530
L20339 9530
L20395 9548
L20620 9773
L20620 9530
" />
<path d="M20583 9361
L20602 9342
L20620 9361
L20602 9380
L20583 9361
L20620 9361
" />
<path d="M20227 9211
L20227 8948
L20620 9117
" />
<path d="M20227 8723
L20227 8686
L20245 8648
L20264 8630
L20302 8611
L20377 8592
L20470 8592
L20545 8611
L20583 8630
L20602 8648
L20620 8686
L20620 8723
L20602 8761
L20583 8780
L20545 8798
L20470 8817
L20377 8817
L20302 8798
L20264 8780
L20245 8761
L20227 8723
" />
<path d="M20227 8349
L20227 8311
L20245 8274
L20264 8255
L20302 8236
L20377 8217
L20470 8217
L20545 8236
L20583 8255
L20602 8274
L20620 8311
L20620 8349
L20602 8386
L20583 8405
L20545 8424
L20470 8442
L20377 8442
L20302 8424
L20264 8405
L20245 8386
L20227 8349
" />
<path d="M20620 7749
L20358 7749
" />
<path d="M20395 7749
L20377 7730
L20358 7692
L20358 7636
L20377 7599
L20414 7580
L20620 7580
" />
<path d="M20414 7580
L20377 7561
L20358 7524
L20358 7467
L20377 7430
L20414 7411
L20620 7411
" />
<path d="M20620 7224
L20358 7224
" />
<path d="M20395 7224
L20377 7205
L20358 7167
L20358 7111
L20377 7074
L20414 7055
L20620 7055
" />
<path d="M20414 7055
L20377 7036
L20358 6999
L20358 6942
L20377 6905
L20414 6886
L20620 6886
" />
<path d="M19930 10999
L19930 5999
" />
<path d="M16330 10999
L20161 10999
" />
<path d="M16330 5999
L20161 5999
" />
<path d="M19930 5999
L20161 6442
" />
<path d="M19930 5999
L19699 6442
" />
<path d="M19930 10999
L20161 10555
" />
<path d="M19930 10999
L19699 10555
" />
<path d="M20620 14905
L20620 15130
" />
<path d="M20620 15017
L20227 15017
L20283 15055
L20320 15092
L20339 15130
" />
<path d="M20264 14755
L20245 14736
L20227 14698
L20227 14605
L20245 14567
L20264 14548
L20302 14530
L20339 14530
L20395 14548
L20620 14773
L20620 14530
" />
<path d="M20583 14361
L20602 14342
L20620 14361
L20602 14380
L20583 14361
L20620 14361
" />
<path d="M20227 14211
L20227 13948
L20620 14117
" />
<path d="M20227 13723
L20227 13686
L20245 13648
L20264 13630
L20302 13611
L20377 13592
L20470 13592
L20545 13611
L20583 13630
L20602 13648
L20620 13686
L20620 13723
L20602 13761
L20583 13780
L20545 13798
L20470 13817
L20377 13817
L20302 13798
L20264 13780
L20245 13761
L20227 13723
" />
<path d="M20227 13349
L20227 13311
L20245 13274
L20264 13255
L20302 13236
L20377 13217
L20470 13217
L20545 13236
L20583 13255
L20602 13274
L20620 13311
L20620 13349
L20602 13386
L20583 13405
L20545 13424
L20470 13442
L20377 13442
L20302 13424
L20264 13405
L20245 13386
L20227 13349
" />
<path d="M20620 12749
L20358 12749
" />
<path d="M20395 12749
L20377 12730
L20358 12692
L20358 12636
L20377 12599
L20414 12580
L20620 12580
" />
<path d="M20414 12580
L20377 12561
L20358 12524
L20358 12467
L20377 12430
L20414 12411
L20620 12411
" />
<path d="M20620 12224
L20358 12224
" />
<path d="M20395 12224
L20377 12205
L20358 12167
L20358 12111
L20377 12074
L20414 12055
L20620 12055
" />
<path d="M20414 12055
L20377 12036
L20358 11999
L20358 11942
L20377 11905
L20414 11886
L20620 11886
" />
<path d="M19930 15999
L19930 10999
" />
<path d="M16330 15999
L20161 15999
" />
<path d="M16330 10999
L20161 10999
" />
<path d="M19930 10999
L20161 11442
" />
<path d="M19930 10999
L19699 11442
" />
<path d="M19930 15999
L20161 15555
" />
<path d="M19930 15999
L19699 15555
" />
<path d="M20620 19905
L20620 20130
" />
<path d="M20620 20017
L20227 20017
L20283 20055
L20320 20092
L20339 20130
" />
<path d="M20264 19755
L20245 19736
L20227 19698
L20227 19605
L20245 19567
L20264 19548
L20302 19530
L20339 19530
L20395 19548
L20620 19773
L20620 19530
" />
<path d="M20583 19361
L20602 19342
L20620 19361
L20602 19380
L20583 19361
L20620 19361
" />
<path d="M20227 19211
L20227 18948
L20620 19117
" />
<path d="M20227 18723
L20227 18686
L20245 18648
L20264 18630
L20302 18611
L20377 18592
L20470 18592
L20545 18611
L20583 18630
L20602 18648
L20620 18686
L20620 18723
L20602 18761
L20583 18780
L20545 18798
L20470 18817
L20377 18817
L20302 18798
L20264 18780
L20245 18761
L20227 18723
" />
<path d="M20227 18349
L20227 18311
L20245 18274
L20264 18255
L20302 18236
L20377 18217
L20470 18217
L20545 18236
L20583 18255
L20602 18274
L20620 18311
L20620 18349
L20602 18386
L20583 18405
L20545 18424
L20470 18442
L20377 18442
L20302 18424
L20264 18405
L20245 18386
L20227 18349
" />
<path d="M20620 17749
L20358 17749
" />
<path d="M20395 17749
L20377 17730
L20358 17692
L20358 17636
L20377 17599
L20414 17580
L20620 17580
" />
<path d="M20414 17580
L20377 17561
L20358 17524
L20358 17467
L20377 17430
L20414 17411
L20620 17411
" />
<path d="M20620 17224
L20358 17224
" />
<path d="M20395 17224
L20377 17205
L20358 17167
L20358 17111
L20377 17074
L20414 17055
L20620 17055
" />
<path d="M20414 17055
L20377 17036
L20358 16999
L20358 16942
L20377 16905
L20414 16886
L20620 16886
" />
<path d="M19930 20999
L19930 15999
" />
<path d="M16330 20999
L20161 20999
" />
<path d="M16330 15999
L20161 15999
" />
<path d="M19930 15999
L20161 16442
" />
<path d="M19930 15999
L19699 16442
" />
<path d="M19930 20999
L20161 20555
" />
<path d="M19930 20999
L19699 20555
" />
<path d="M8471 82
L8715 82
L8584 232
L8640 232
L8677 251
L8696 270
L8715 307
L8715 401
L8696 438
L8677 457
L8640 476
L8527 476
L8490 457
L8471 438
" />
<path d="M8959 82
L8996 82
L9034 101
L9052 120
L9071 157
L9090 232
L9090 326
L9071 401
L9052 438
L9034 457
L8996 476
L8959 476
L8921 457
L8902 438
L8884 401
L8865 326
L8865 232
L8884 157
L8902 120
L8921 101
L8959 82
" />
<path d="M9258 438
L9277 457
L9258 476
L9240 457
L9258 438
L9258 476
" />
<path d="M9521 82
L9558 82
L9596 101
L9615 120
L9633 157
L9652 232
L9652 326
L9633 401
L9615 438
L9596 457
L9558 476
L9521 476
L9483 457
L9465 438
L9446 401
L9427 326
L9427 232
L9446 157
L9465 120
L9483 101
L9521 82
" />
<path d="M9896 82
L9933 82
L9971 101
L9990 120
L10008 157
L10027 232
L10027 326
L10008 401
L9990 438
L9971 457
L9933 476
L9896 476
L9858 457
L9840 438
L9821 401
L9802 326
L9802 232
L9821 157
L9840 120
L9858 101
L9896 82
" />
<path d="M10271 82
L10308 82
L10346 101
L10365 120
L10383 157
L10402 232
L10402 326
L10383 401
L10365 438
L10346 457
L10308 476
L10271 476
L10233 457
L10215 438
L10196 401
L10177 326
L10177 232
L10196 157
L10215 120
L10233 101
L10271 82
" />
<path d="M10871 476
L10871 213
" />
<path d="M10871 251
L10890 232
L10927 213
L10983 213
L11021 232
L11040 270
L11040 476
" />
<path d="M11040 270
L11058 232
L11096 213
L11152 213
L11190 232
L11208 270
L11208 476
" />
<path d="M11396 476
L11396 213
" />
<path d="M11396 251
L11414 232
L11452 213
L11508 213
L11546 232
L11564 270
L11564 476
" />
<path d="M11564 270
L11583 232
L11621 213
L11677 213
L11714 232
L11733 270
L11733 476
" />
<path d="M4215 810
L16026 810
" />
<path d="M4215 2778
L4215 579
" />
<path d="M16026 2778
L16026 579
" />
<path d="M16026 810
L15583 1040
" />
<path d="M16026 810
L15583 579
" />
<path d="M4215 810
L4659 1040
" />
<path d="M4215 810
L4659 579
" />
<path d="M1951 11196
L1951 11008
L1763 10990
L1782 11008
L1801 11046
L1801 11139
L1782 11177
L1763 11196
L1726 11214
L1632 11214
L1594 11196
L1576 11177
L1557 11139
L1557 11046
L1576 11008
L1594 10990
" />
<path d="M1951 11458
L1951 11496
L1932 11533
L1913 11552
L1876 11571
L1801 11589
L1707 11589
L1632 11571
L1594 11552
L1576 11533
L1557 11496
L1557 11458
L1576 11421
L1594 11402
L1632 11383
L1707 11364
L1801 11364
L1876 11383
L1913 11402
L1932 11421
L1951 11458
" />
<path d="M1594 11758
L1576 11777
L1557 11758
L1576 11739
L1594 11758
L1557 11758
" />
<path d="M1951 12021
L1951 12058
L1932 12096
L1913 12114
L1876 12133
L1801 12152
L1707 12152
L1632 12133
L1594 12114
L1576 12096
L1557 12058
L1557 12021
L1576 11983
L1594 11964
L1632 11946
L1707 11927
L1801 11927
L1876 11946
L1913 11964
L1932 11983
L1951 12021
" />
<path d="M1951 12396
L1951 12433
L1932 12471
L1913 12489
L1876 12508
L1801 12527
L1707 12527
L1632 12508
L1594 12489
L1576 12471
L1557 12433
L1557 12396
L1576 12358
L1594 12339
L1632 12321
L1707 12302
L1801 12302
L1876 12321
L1913 12339
L1932 12358
L1951 12396
" />
<path d="M1951 12771
L1951 12808
L1932 12846
L1913 12864
L1876 12883
L1801 12902
L1707 12902
L1632 12883
L1594 12864
L1576 12846
L1557 12808
L1557 12771
L1576 12733
L1594 12714
L1632 12696
L1707 12677
L1801 12677
L1876 12696
L1913 12714
L1932 12733
L1951 12771
" />
<path d="M1557 13370
L1819 13370
" />
<path d="M1782 13370
L1801 13389
L1819 13427
L1819 13483
L1801 13520
L1763 13539
L1557 13539
" />
<path d="M1763 13539
L1801 13558
L1819 13595
L1819 13652
L1801 13689
L1763 13708
L1557 13708
" />
<path d="M1557 13895
L1819 13895
" />
<path d="M1782 13895
L1801 13914
L1819 13952
L1819 14008
L1801 14045
L1763 14064
L1557 14064
" />
<path d="M1763 14064
L1801 14083
L1819 14120
L1819 14177
L1801 14214
L1763 14233
L1557 14233
" />
<path d="M2247 2778
L2247 22463
" />
<path d="M4215 2778
L2016 2778
" />
<path d="M4215 22463
L2016 22463
" />
<path d="M2247 22463
L2016 22020
" />
<path d="M2247 22463
L2478 22020
" />
<path d="M2247 2778
L2016 3222
" />
<path d="M2247 2778
L2478 3222
" />
<g >
</g>
<g >
</g>
<g >
</g>
<g >
</g>
<g >
</g>
<g >
</g>
<g >
</g>
<g >
</g>
<g >
</g>
<g >
</g>
<g >
</g>
</g>
<g style="fill:#000000; fill-opacity:0.0; 
stroke:#000000; stroke-width:59.0551; stroke-opacity:1; 
stroke-linecap:round; stroke-linejoin:round;">
<g >
</g>
<g >
</g>
<g >
</g>
<g >
</g>
<g >
</g>
<g >
</g>
<g >
</g>
<g >
</g>
<g >
</g>
<g >
</g>
<g >
</g>
</g>
<g style="fill:#C2C200; fill-opacity:0.0; 
stroke:#C2C200; stroke-width:59.0551; stroke-opacity:1; 
stroke-linecap:round; stroke-linejoin:round;">
</g>
<g style="fill:#C2C200; fill-opacity:0.0; 
stroke:#C2C200; stroke-width:39.3701; stroke-opacity:1; 
stroke-linecap:round; stroke-linejoin:round;">
<path d="M16026 22463
L4215 22463
" />
<path d="M16026 2778
L16026 22463
" />
<path d="M4215 2778
L16026 2778
" />
<path d="M4215 22463
L4215 2778
" />
<g >
</g>
<g >
</g>
<g >
</g>
<g >
</g>
<g >
</g>
<g >
</g>
<g >
</g>
<g >
</g>
<g >
</g>
<g >
</g>
<g >
</g>
</g> 
</svg>
